      <svg
        viewBoxSize="575"
        data-root-id="6713679629955"
        xmlns="http://www.w3.org/2000/svg"
        xmlns:xlink="http://www.w3.org/1999/xlink"
        version="1.1"
        id="Layer_1"
        x="200"
        y="167.5"
        viewBox="464.79998779296875 464.9993896484375 1070.300048828125 1070.1007080078125"
        xml:space="preserve"
        height="174.9673943770559"
        width="175"
        preserveAspectRatio="xMinYMin"
        zoom="1"
        editorType="buyer"
        data-layer-role="icon"
        style="height: 174.967px; width: 175px; top: 167.5px; left: 200px"
      >
        <path
          class="st0"
          d="M844.4,1225.3c-6.8,0-13.5-2.6-18.7-7.7l-198.9-198.9c-10.3-10.3-10.3-27,0-37.3l63-63     c10.3-10.3,27-10.3,37.3,0s10.3,27,0,37.3l-44.3,44.3L863,1180.2c10.3,10.3,10.3,27,0,37.3     C857.9,1222.7,851.2,1225.3,844.4,1225.3z"
          name="Layer 1"
          zoom="1"
          data-layer-id="8256720629956"
          style="fill: rgb(40, 250, 153)"
        ></path>
        <path
          class="st1"
          d="M773.5,894.4c-6.4,0-12.7-2.3-17.8-6.9c-10.8-9.8-11.5-26.5-1.7-37.3l71-77.6c9.8-10.8,26.5-11.5,37.3-1.7     s11.5,26.5,1.7,37.3l-71,77.6C787.7,891.5,780.6,894.4,773.5,894.4z"
          name="Layer 2"
          zoom="1"
          data-layer-id="2430493529956"
          style="fill: rgb(171, 107, 253)"
        ></path>
        <path
          class="st2"
          d="M1278.9,1078.6c-6.8,0-13.5-2.6-18.7-7.7c-10.3-10.3-10.3-27,0-37.3l44.3-44.3L1124.3,809    c-10.3-10.3-10.3-27,0-37.3s27-10.3,37.3,0l198.9,198.9c10.3,10.3,10.3,27,0,37.3l-63,63    C1292.4,1076.1,1285.6,1078.6,1278.9,1078.6z"
          name="Layer 3"
          zoom="1"
          data-layer-id="4530514929956"
          style="fill: rgb(251, 176, 59)"
        ></path>
        <path
          class="st3"
          d="M1142.9,1225.3c-6.4,0-12.7-2.3-17.8-6.9c-10.8-9.8-11.5-26.5-1.7-37.3l71-77.6c9.8-10.8,26.5-11.5,37.3-1.7    s11.5,26.5,1.7,37.3l-71,77.6C1157.2,1222.4,1150.1,1225.3,1142.9,1225.3z"
          name="Layer 4"
          zoom="1"
          data-layer-id="1555822629956"
          style="fill: rgb(241, 91, 40)"
        ></path>
        <path
          class="st4"
          d="M940.7,1315.4c-1.7,0-3.4-0.2-5.2-0.5c-14.3-2.8-23.6-16.7-20.8-31l48.9-246.9c2.8-14.3,16.7-23.6,31-20.8    s23.6,16.7,20.8,31l-48.9,246.9C964,1306.7,953,1315.4,940.7,1315.4z"
          name="Layer 5"
          zoom="1"
          data-layer-id="8393371329956"
          style="fill: rgb(53, 144, 217)"
        ></path>
        <path
          class="st5"
          d="M1009.2,969.6c-1.7,0-3.4-0.2-5.2-0.5c-14.3-2.8-23.6-16.7-20.8-31l46-232.2c2.8-14.3,16.7-23.6,31-20.8    s23.6,16.7,20.8,31l-46,232.2C1032.5,960.9,1021.5,969.6,1009.2,969.6z"
          name="Layer 6"
          zoom="1"
          data-layer-id="9706287629956"
          style="fill: rgb(242, 91, 34)"
        ></path>
        <path
          class="st5"
          d="M1482.3,998.9c0,0.4,0,0.7,0,1.1c0,37.5-4.3,73.9-12.3,108.9c-3.3,14.2,5.6,28.4,19.8,31.6    c14.2,3.3,28.4-5.6,31.6-19.8c9-38.8,13.7-79.2,13.7-120.7c0-0.4,0-0.8,0-1.2c0-14.6-11.9-26.4-26.4-26.3    C1494.1,972.5,1482.3,984.3,1482.3,998.9L1482.3,998.9z"
          name="Layer 7"
          zoom="1"
          data-layer-id="8166208829956"
          style="fill: rgb(242, 91, 34)"
        ></path>
        <path
          class="st5"
          d="M1461.2,858.3c13.6,44.5,21,91.6,21.1,140.6c0,14.6,11.9,26.4,26.4,26.3c14.6,0,26.4-11.9,26.3-26.4    c-0.1-54.2-8.3-106.6-23.5-156c-4.3-13.9-19-21.8-33-17.5C1464.8,829.6,1456.9,844.4,1461.2,858.3L1461.2,858.3z"
          name="Layer 8"
          zoom="1"
          data-layer-id="4421293429956"
          style="fill: rgb(242, 91, 34)"
        ></path>
        <path
          class="st5"
          d="M1417.3,758L1417.3,758c7.3,12.6,23.5,16.9,36.1,9.6c12.6-7.3,16.9-23.5,9.6-36.1l0,0    c-7.3-12.6-23.5-16.9-36.1-9.6C1414.3,729.2,1410,745.4,1417.3,758L1417.3,758z"
          name="Layer 9"
          zoom="1"
          data-layer-id="4990198129956"
          style="fill: rgb(242, 91, 34)"
        ></path>
        <path
          class="st2"
          d="M1240.4,581.7c31.8,18.3,61.4,40.2,88.1,65.1c10.7,9.9,27.4,9.3,37.3-1.3c9.9-10.7,9.3-27.4-1.3-37.3    c-29.6-27.6-62.4-51.9-97.8-72.2c-12.6-7.3-28.8-2.9-36,9.7C1223.4,558.3,1227.8,574.5,1240.4,581.7L1240.4,581.7z"
          name="Layer 10"
          zoom="1"
          data-layer-id="9353003529956"
          style="fill: rgb(251, 176, 59)"
        ></path>
        <path
          class="st2"
          d="M1108.1,529.8c47.1,10.8,91.6,28.5,132.3,51.9c12.6,7.3,28.8,2.9,36-9.7c7.3-12.6,2.9-28.8-9.7-36    c-45.2-26-94.6-45.7-146.9-57.6c-14.2-3.3-28.4,5.6-31.6,19.8C1085,512.4,1093.9,526.6,1108.1,529.8L1108.1,529.8z"
          name="Layer 11"
          zoom="1"
          data-layer-id="7532087829956"
          style="fill: rgb(251, 176, 59)"
        ></path>
        <path
          class="st2"
          d="M999.2,517.7L999.2,517.7c14.6,0,26.4-11.9,26.3-26.4c0-14.6-11.9-26.4-26.4-26.3l0,0    c-14.6,0-26.4,11.9-26.3,26.4C972.8,505.9,984.6,517.7,999.2,517.7L999.2,517.7z"
          name="Layer 12"
          zoom="1"
          data-layer-id="0301799329956"
          style="fill: rgb(251, 176, 59)"
        ></path>
        <path
          class="st4"
          d="M758.2,582.5c31.4-18.2,65-33,100.4-43.8c13.9-4.3,21.8-19,17.5-33c-4.3-13.9-19-21.8-33-17.5    c-39.2,12-76.6,28.4-111.4,48.6c-12.6,7.3-16.9,23.5-9.6,36.1C729.4,585.6,745.6,589.9,758.2,582.5L758.2,582.5z"
          name="Layer 13"
          zoom="1"
          data-layer-id="3689321529956"
          style="fill: rgb(53, 144, 217)"
        ></path>
        <path
          class="st4"
          d="M647,671.3c32.4-34.8,69.8-64.7,111.2-88.7c12.6-7.3,16.9-23.5,9.6-36.1c-7.3-12.6-23.5-16.9-36.1-9.6    c-45.9,26.6-87.4,59.9-123.3,98.4c-9.9,10.7-9.3,27.4,1.3,37.3C620.4,682.5,637.1,681.9,647,671.3L647,671.3z"
          name="Layer 14"
          zoom="1"
          data-layer-id="5251411429956"
          style="fill: rgb(53, 144, 217)"
        ></path>
        <path
          class="st4"
          d="M581.9,759.4L581.9,759.4c7.3-12.6,2.9-28.8-9.7-36c-12.6-7.3-28.8-2.9-36,9.7l0,0c-7.3,12.6-3,28.8,9.7,36    C558.4,776.3,574.6,772,581.9,759.4L581.9,759.4z"
          name="Layer 15"
          zoom="1"
          data-layer-id="1433277729956"
          style="fill: rgb(53, 144, 217)"
        ></path>
        <path
          class="st2"
          d="M517.7,1000.5c0-0.2,0-0.4,0-0.5c0-37.3,4.2-73.5,12.2-108.3c3.3-14.2-5.6-28.4-19.8-31.6    c-14.2-3.3-28.4,5.6-31.6,19.8c-8.9,38.6-13.5,78.9-13.5,120.1c0,0.2,0,0.4,0,0.6c0,14.6,11.8,26.4,26.4,26.4    C505.9,1026.9,517.7,1015.1,517.7,1000.5L517.7,1000.5z"
          name="Layer 16"
          zoom="1"
          data-layer-id="1930469429956"
          style="fill: rgb(251, 176, 59)"
        ></path>
        <path
          class="st2"
          d="M538.6,1141.2c-13.6-44.5-20.9-91.7-21-140.6c0-14.6-11.8-26.4-26.4-26.4s-26.4,11.8-26.4,26.4    c0.1,54.2,8.2,106.6,23.3,156c4.3,13.9,19,21.8,32.9,17.5C535.1,1169.9,542.9,1155.1,538.6,1141.2z"
          name="Layer 17"
          zoom="1"
          data-layer-id="0957893629956"
          style="fill: rgb(251, 176, 59)"
        ></path>
        <path
          class="st2"
          d="M582.4,1241.6L582.4,1241.6c-7.3-12.6-23.5-16.9-36.1-9.6s-16.9,23.5-9.6,36.1l0,0    c7.3,12.6,23.5,16.9,36.1,9.6C585.4,1270.3,589.7,1254.2,582.4,1241.6L582.4,1241.6z"
          name="Layer 18"
          zoom="1"
          data-layer-id="0496766629956"
          style="fill: rgb(251, 176, 59)"
        ></path>
        <path
          class="st1"
          d="M759.1,1418c-31.8-18.4-61.4-40.3-88.1-65.2c-10.7-9.9-27.4-9.4-37.3,1.3c-9.9,10.7-9.4,27.4,1.3,37.3    c29.6,27.6,62.4,51.9,97.7,72.3c12.6,7.3,28.8,3,36-9.7C776.1,1441.4,771.8,1425.3,759.1,1418z"
          name="Layer 19"
          zoom="1"
          data-layer-id="7880076929956"
          style="fill: rgb(171, 107, 253)"
        ></path>
        <path
          class="st1"
          d="M891.4,1470.1c-47.1-10.8-91.5-28.6-132.3-52.1c-12.6-7.3-28.8-3-36,9.7c-7.3,12.6-3,28.8,9.7,36    c45.2,26.1,94.5,45.8,146.8,57.8c14.2,3.3,28.4-5.6,31.6-19.8C914.5,1487.5,905.6,1473.3,891.4,1470.1L891.4,1470.1z"
          name="Layer 20"
          zoom="1"
          data-layer-id="0203816529956"
          style="fill: rgb(171, 107, 253)"
        ></path>
        <path
          class="st1"
          d="M1000.3,1482.3L1000.3,1482.3c-14.6,0-26.4,11.8-26.4,26.4s11.8,26.4,26.4,26.4l0,0    c14.6,0,26.4-11.8,26.4-26.4C1026.7,1494.1,1014.8,1482.3,1000.3,1482.3L1000.3,1482.3z"
          name="Layer 21"
          zoom="1"
          data-layer-id="9238765829956"
          style="fill: rgb(171, 107, 253)"
        ></path>
        <path
          class="st0"
          d="M1241.3,1417.7c-31.4,18.2-65,32.9-100.4,43.7c-13.9,4.3-21.8,19-17.5,32.9s19,21.8,32.9,17.5    c39.3-12,76.6-28.3,111.5-48.5c12.6-7.3,16.9-23.4,9.6-36.1C1270.1,1414.7,1253.9,1410.4,1241.3,1417.7z"
          name="Layer 22"
          zoom="1"
          data-layer-id="6885452529956"
          style="fill: rgb(40, 250, 153)"
        ></path>
        <path
          class="st0"
          d="M1352.6,1329.1c-32.4,34.7-69.9,64.6-111.3,88.6c-12.6,7.3-16.9,23.4-9.6,36.1c7.3,12.6,23.4,16.9,36.1,9.6    c45.9-26.6,87.5-59.8,123.4-98.2c9.9-10.7,9.4-27.3-1.3-37.3C1379.2,1317.9,1362.6,1318.5,1352.6,1329.1z"
          name="Layer 23"
          zoom="1"
          data-layer-id="3940259429956"
          style="fill: rgb(40, 250, 153)"
        ></path>
        <path
          class="st0"
          d="M1417.9,1241.1L1417.9,1241.1c-7.3,12.6-3,28.8,9.6,36c12.6,7.3,28.8,3,36-9.6l0,0c7.3-12.6,3-28.8-9.6-36    C1441.3,1224.2,1425.2,1228.5,1417.9,1241.1L1417.9,1241.1z"
          name="Layer 24"
          zoom="1"
          data-layer-id="8618731329956"
          style="fill: rgb(40, 250, 153)"
        ></path>
      </svg>